solid OpenSCAD_Model
  facet normal -1 0 0
    outer loop
      vertex 20.2 1 1
      vertex 20.2 1.8 20.2
      vertex 20.2 1.8 1
    endloop
  endfacet
  facet normal -1 -0 0
    outer loop
      vertex 20.2 1.8 20.2
      vertex 20.2 1 1
      vertex 20.2 1 20.2
    endloop
  endfacet
  facet normal -0 0 1
    outer loop
      vertex 1 1.8 1
      vertex 8.6 1 1
      vertex 8.6 1.8 1
    endloop
  endfacet
  facet normal 0 0 1
    outer loop
      vertex 8.6 1 1
      vertex 1 1.8 1
      vertex 1 1 1
    endloop
  endfacet
  facet normal 0 0 1
    outer loop
      vertex 8.6 1.8 1
      vertex 12.6 1.8 1
      vertex 12.6 2 1
    endloop
  endfacet
  facet normal 0 0 1
    outer loop
      vertex 12.6 1.8 1
      vertex 8.6 1.8 1
      vertex 12.6 1 1
    endloop
  endfacet
  facet normal 0 0 1
    outer loop
      vertex 8.6 1.8 1
      vertex 12.6 2 1
      vertex 8.6 2 1
    endloop
  endfacet
  facet normal 0 0 1
    outer loop
      vertex 12.6 1 1
      vertex 8.6 1.8 1
      vertex 8.6 1 1
    endloop
  endfacet
  facet normal 0 0 1
    outer loop
      vertex 12.6 1 1
      vertex 8.6 1 1
      vertex 12.6 0 1
    endloop
  endfacet
  facet normal 0 0 1
    outer loop
      vertex 12.6 0 1
      vertex 8.6 1 1
      vertex 8.6 0 1
    endloop
  endfacet
  facet normal -0 0 1
    outer loop
      vertex 12.6 1.8 1
      vertex 20.2 1 1
      vertex 20.2 1.8 1
    endloop
  endfacet
  facet normal 0 0 1
    outer loop
      vertex 20.2 1 1
      vertex 12.6 1.8 1
      vertex 12.6 1 1
    endloop
  endfacet
  facet normal 1 -0 0
    outer loop
      vertex 1 1 20.2
      vertex 1 1.8 1
      vertex 1 1.8 20.2
    endloop
  endfacet
  facet normal 1 0 0
    outer loop
      vertex 1 1.8 1
      vertex 1 1 20.2
      vertex 1 1 1
    endloop
  endfacet
  facet normal 0 -1 0
    outer loop
      vertex 1 1.8 20.2
      vertex 5.85 1.8 3
      vertex 5.85 1.8 20.2
    endloop
  endfacet
  facet normal 0 -1 0
    outer loop
      vertex 1 1.8 1
      vertex 5.85 1.8 3
      vertex 1 1.8 20.2
    endloop
  endfacet
  facet normal 0 -1 0
    outer loop
      vertex 8.6 1.8 1
      vertex 5.85 1.8 3
      vertex 1 1.8 1
    endloop
  endfacet
  facet normal 0 -1 0
    outer loop
      vertex 5.85 1.8 3
      vertex 8.6 1.8 1
      vertex 8.6 1.8 3
    endloop
  endfacet
  facet normal 0 -1 0
    outer loop
      vertex 12.6 1.8 3
      vertex 12.6 1.8 1
      vertex 15.35 1.8 3
    endloop
  endfacet
  facet normal 0 -1 0
    outer loop
      vertex 15.35 1.8 3
      vertex 20.2 1.8 20.2
      vertex 15.35 1.8 20.2
    endloop
  endfacet
  facet normal 0 -1 0
    outer loop
      vertex 15.35 1.8 3
      vertex 20.2 1.8 1
      vertex 20.2 1.8 20.2
    endloop
  endfacet
  facet normal 0 -1 0
    outer loop
      vertex 20.2 1.8 1
      vertex 15.35 1.8 3
      vertex 12.6 1.8 1
    endloop
  endfacet
  facet normal 0 1 0
    outer loop
      vertex 20.2 1 20.2
      vertex 12.6 1 4
      vertex 1 1 20.2
    endloop
  endfacet
  facet normal 0 1 -0
    outer loop
      vertex 20.2 1 1
      vertex 12.6 1 4
      vertex 20.2 1 20.2
    endloop
  endfacet
  facet normal 0 1 0
    outer loop
      vertex 12.6 1 4
      vertex 20.2 1 1
      vertex 12.6 1 1
    endloop
  endfacet
  facet normal 0 1 -0
    outer loop
      vertex 8.6 1 4
      vertex 1 1 20.2
      vertex 12.6 1 4
    endloop
  endfacet
  facet normal 0 1 0
    outer loop
      vertex 1 1 1
      vertex 8.6 1 4
      vertex 8.6 1 1
    endloop
  endfacet
  facet normal 0 1 0
    outer loop
      vertex 8.6 1 4
      vertex 1 1 1
      vertex 1 1 20.2
    endloop
  endfacet
  facet normal -1 0 0
    outer loop
      vertex 15.35 1.8 3
      vertex 15.35 2.8 20.2
      vertex 15.35 2.8 3
    endloop
  endfacet
  facet normal -1 -0 0
    outer loop
      vertex 15.35 2.8 20.2
      vertex 15.35 1.8 3
      vertex 15.35 1.8 20.2
    endloop
  endfacet
  facet normal 0 0 1
    outer loop
      vertex 15.35 2.8 3
      vertex 12.6 2 3
      vertex 15.35 1.8 3
    endloop
  endfacet
  facet normal 0 0 1
    outer loop
      vertex 15.35 2.8 3
      vertex 8.6 2 3
      vertex 12.6 2 3
    endloop
  endfacet
  facet normal -0 0 1
    outer loop
      vertex 5.85 2.8 3
      vertex 8.6 2 3
      vertex 15.35 2.8 3
    endloop
  endfacet
  facet normal 0 0 1
    outer loop
      vertex 5.85 1.8 3
      vertex 8.6 2 3
      vertex 5.85 2.8 3
    endloop
  endfacet
  facet normal 0 0 1
    outer loop
      vertex 8.6 2 3
      vertex 5.85 1.8 3
      vertex 8.6 1.8 3
    endloop
  endfacet
  facet normal 0 0 1
    outer loop
      vertex 15.35 1.8 3
      vertex 12.6 2 3
      vertex 12.6 1.8 3
    endloop
  endfacet
  facet normal 1 -0 0
    outer loop
      vertex 5.85 1.8 20.2
      vertex 5.85 2.8 3
      vertex 5.85 2.8 20.2
    endloop
  endfacet
  facet normal 1 0 0
    outer loop
      vertex 5.85 2.8 3
      vertex 5.85 1.8 20.2
      vertex 5.85 1.8 3
    endloop
  endfacet
  facet normal -1 0 0
    outer loop
      vertex 12.6 1.8 1
      vertex 12.6 2 3
      vertex 12.6 2 1
    endloop
  endfacet
  facet normal -1 -0 0
    outer loop
      vertex 12.6 2 3
      vertex 12.6 1.8 1
      vertex 12.6 1.8 3
    endloop
  endfacet
  facet normal -1 0 0
    outer loop
      vertex 12.6 0 1
      vertex 12.6 1 4
      vertex 12.6 1 1
    endloop
  endfacet
  facet normal -1 -0 0
    outer loop
      vertex 12.6 1 4
      vertex 12.6 0 1
      vertex 12.6 0 4
    endloop
  endfacet
  facet normal 0 0 -1
    outer loop
      vertex 8.6 0 4
      vertex 12.6 1 4
      vertex 12.6 0 4
    endloop
  endfacet
  facet normal -0 0 -1
    outer loop
      vertex 12.6 1 4
      vertex 8.6 0 4
      vertex 8.6 1 4
    endloop
  endfacet
  facet normal 1 -0 0
    outer loop
      vertex 8.6 0 4
      vertex 8.6 1 1
      vertex 8.6 1 4
    endloop
  endfacet
  facet normal 1 0 0
    outer loop
      vertex 8.6 1 1
      vertex 8.6 0 4
      vertex 8.6 0 1
    endloop
  endfacet
  facet normal 1 -0 0
    outer loop
      vertex 8.6 1.8 3
      vertex 8.6 2 1
      vertex 8.6 2 3
    endloop
  endfacet
  facet normal 1 0 0
    outer loop
      vertex 8.6 2 1
      vertex 8.6 1.8 3
      vertex 8.6 1.8 1
    endloop
  endfacet
  facet normal 0 -1 0
    outer loop
      vertex 8.6 2 1
      vertex 12.6 2 3
      vertex 8.6 2 3
    endloop
  endfacet
  facet normal 0 -1 -0
    outer loop
      vertex 12.6 2 3
      vertex 8.6 2 1
      vertex 12.6 2 1
    endloop
  endfacet
  facet normal 0 -1 0
    outer loop
      vertex 12.6 0 1
      vertex 28.8 0 4
      vertex 12.6 0 4
    endloop
  endfacet
  facet normal 0 -1 -0
    outer loop
      vertex 28.8 0 4
      vertex 12.6 0 1
      vertex 28.8 0 1
    endloop
  endfacet
  facet normal 0 -1 0
    outer loop
      vertex 12.6 0 4
      vertex 0 0 20.2
      vertex 8.6 0 4
    endloop
  endfacet
  facet normal 0 -1 0
    outer loop
      vertex 0 0 0
      vertex 8.6 0 4
      vertex 0 0 20.2
    endloop
  endfacet
  facet normal 0 -1 0
    outer loop
      vertex 0 0 0
      vertex 12.6 0 1
      vertex 8.6 0 1
    endloop
  endfacet
  facet normal 0 -1 -0
    outer loop
      vertex 12.6 0 1
      vertex 0 0 0
      vertex 28.8 0 1
    endloop
  endfacet
  facet normal 0 -1 0
    outer loop
      vertex 41.4 0 0
      vertex 28.8 0 1
      vertex 0 0 0
    endloop
  endfacet
  facet normal 0 -1 -0
    outer loop
      vertex 8.6 0 4
      vertex 0 0 0
      vertex 8.6 0 1
    endloop
  endfacet
  facet normal 0 -1 0
    outer loop
      vertex 0 0 20.2
      vertex 12.6 0 4
      vertex 41.4 0 20.2
    endloop
  endfacet
  facet normal 0 -1 0
    outer loop
      vertex 28.8 0 4
      vertex 41.4 0 20.2
      vertex 12.6 0 4
    endloop
  endfacet
  facet normal 0 -1 0
    outer loop
      vertex 32.8 0 4
      vertex 41.4 0 20.2
      vertex 28.8 0 4
    endloop
  endfacet
  facet normal 0 -1 0
    outer loop
      vertex 41.4 0 0
      vertex 32.8 0 4
      vertex 32.8 0 1
    endloop
  endfacet
  facet normal 0 -1 0
    outer loop
      vertex 32.8 0 4
      vertex 41.4 0 0
      vertex 41.4 0 20.2
    endloop
  endfacet
  facet normal 0 -1 0
    outer loop
      vertex 28.8 0 1
      vertex 41.4 0 0
      vertex 32.8 0 1
    endloop
  endfacet
  facet normal -1 0 0
    outer loop
      vertex 20.2 2.8 1
      vertex 20.2 72.8 20.2
      vertex 20.2 72.8 1
    endloop
  endfacet
  facet normal -1 -0 0
    outer loop
      vertex 20.2 72.8 20.2
      vertex 20.2 2.8 1
      vertex 20.2 2.8 20.2
    endloop
  endfacet
  facet normal -0 0 1
    outer loop
      vertex 1 72.8 1
      vertex 20.2 2.8 1
      vertex 20.2 72.8 1
    endloop
  endfacet
  facet normal 0 0 1
    outer loop
      vertex 20.2 2.8 1
      vertex 1 72.8 1
      vertex 1 2.8 1
    endloop
  endfacet
  facet normal 1 -0 0
    outer loop
      vertex 1 2.8 20.2
      vertex 1 72.8 1
      vertex 1 72.8 20.2
    endloop
  endfacet
  facet normal 1 0 0
    outer loop
      vertex 1 72.8 1
      vertex 1 2.8 20.2
      vertex 1 2.8 1
    endloop
  endfacet
  facet normal 0 -1 0
    outer loop
      vertex 1 72.8 20.2
      vertex 5.85 72.8 3
      vertex 5.85 72.8 20.2
    endloop
  endfacet
  facet normal 0 -1 -0
    outer loop
      vertex 5.85 72.8 3
      vertex 1 72.8 1
      vertex 15.35 72.8 3
    endloop
  endfacet
  facet normal 0 -1 0
    outer loop
      vertex 1 72.8 1
      vertex 5.85 72.8 3
      vertex 1 72.8 20.2
    endloop
  endfacet
  facet normal 0 -1 0
    outer loop
      vertex 15.35 72.8 3
      vertex 20.2 72.8 20.2
      vertex 15.35 72.8 20.2
    endloop
  endfacet
  facet normal 0 -1 0
    outer loop
      vertex 15.35 72.8 3
      vertex 20.2 72.8 1
      vertex 20.2 72.8 20.2
    endloop
  endfacet
  facet normal 0 -1 0
    outer loop
      vertex 20.2 72.8 1
      vertex 15.35 72.8 3
      vertex 1 72.8 1
    endloop
  endfacet
  facet normal 0 1 0
    outer loop
      vertex 20.2 2.8 20.2
      vertex 15.35 2.8 3
      vertex 15.35 2.8 20.2
    endloop
  endfacet
  facet normal 0 1 0
    outer loop
      vertex 15.35 2.8 3
      vertex 20.2 2.8 1
      vertex 5.85 2.8 3
    endloop
  endfacet
  facet normal 0 1 -0
    outer loop
      vertex 20.2 2.8 1
      vertex 15.35 2.8 3
      vertex 20.2 2.8 20.2
    endloop
  endfacet
  facet normal 0 1 -0
    outer loop
      vertex 5.85 2.8 3
      vertex 1 2.8 20.2
      vertex 5.85 2.8 20.2
    endloop
  endfacet
  facet normal 0 1 0
    outer loop
      vertex 5.85 2.8 3
      vertex 1 2.8 1
      vertex 1 2.8 20.2
    endloop
  endfacet
  facet normal 0 1 0
    outer loop
      vertex 1 2.8 1
      vertex 5.85 2.8 3
      vertex 20.2 2.8 1
    endloop
  endfacet
  facet normal -1 0 0
    outer loop
      vertex 20.2 73.8 1
      vertex 20.2 74.6 20.2
      vertex 20.2 74.6 1
    endloop
  endfacet
  facet normal -1 -0 0
    outer loop
      vertex 20.2 74.6 20.2
      vertex 20.2 73.8 1
      vertex 20.2 73.8 20.2
    endloop
  endfacet
  facet normal 0 0 1
    outer loop
      vertex 12.6 75.6 1
      vertex 8.6 75.6 1
      vertex 12.6 74.6 1
    endloop
  endfacet
  facet normal -0 0 1
    outer loop
      vertex 12.6 74.6 1
      vertex 20.2 73.8 1
      vertex 20.2 74.6 1
    endloop
  endfacet
  facet normal 0 0 1
    outer loop
      vertex 8.6 74.6 1
      vertex 12.6 74.6 1
      vertex 8.6 75.6 1
    endloop
  endfacet
  facet normal -0 0 1
    outer loop
      vertex 8.6 74.6 1
      vertex 20.2 73.8 1
      vertex 12.6 74.6 1
    endloop
  endfacet
  facet normal 0 0 1
    outer loop
      vertex 1 73.8 1
      vertex 8.6 74.6 1
      vertex 1 74.6 1
    endloop
  endfacet
  facet normal 0 0 1
    outer loop
      vertex 8.6 74.6 1
      vertex 1 73.8 1
      vertex 20.2 73.8 1
    endloop
  endfacet
  facet normal 1 -0 0
    outer loop
      vertex 1 73.8 20.2
      vertex 1 74.6 1
      vertex 1 74.6 20.2
    endloop
  endfacet
  facet normal 1 0 0
    outer loop
      vertex 1 74.6 1
      vertex 1 73.8 20.2
      vertex 1 73.8 1
    endloop
  endfacet
  facet normal 0 -1 0
    outer loop
      vertex 1 74.6 20.2
      vertex 8.6 74.6 4
      vertex 20.2 74.6 20.2
    endloop
  endfacet
  facet normal 0 -1 0
    outer loop
      vertex 1 74.6 1
      vertex 8.6 74.6 4
      vertex 1 74.6 20.2
    endloop
  endfacet
  facet normal 0 -1 -0
    outer loop
      vertex 8.6 74.6 4
      vertex 1 74.6 1
      vertex 8.6 74.6 1
    endloop
  endfacet
  facet normal 0 -1 0
    outer loop
      vertex 12.6 74.6 4
      vertex 20.2 74.6 20.2
      vertex 8.6 74.6 4
    endloop
  endfacet
  facet normal 0 -1 0
    outer loop
      vertex 20.2 74.6 1
      vertex 12.6 74.6 4
      vertex 12.6 74.6 1
    endloop
  endfacet
  facet normal 0 -1 0
    outer loop
      vertex 12.6 74.6 4
      vertex 20.2 74.6 1
      vertex 20.2 74.6 20.2
    endloop
  endfacet
  facet normal 0 1 0
    outer loop
      vertex 20.2 73.8 20.2
      vertex 15.35 73.8 3
      vertex 15.35 73.8 20.2
    endloop
  endfacet
  facet normal 0 1 0
    outer loop
      vertex 15.35 73.8 3
      vertex 20.2 73.8 1
      vertex 5.85 73.8 3
    endloop
  endfacet
  facet normal 0 1 -0
    outer loop
      vertex 20.2 73.8 1
      vertex 15.35 73.8 3
      vertex 20.2 73.8 20.2
    endloop
  endfacet
  facet normal 0 1 -0
    outer loop
      vertex 5.85 73.8 3
      vertex 1 73.8 20.2
      vertex 5.85 73.8 20.2
    endloop
  endfacet
  facet normal 0 1 0
    outer loop
      vertex 5.85 73.8 3
      vertex 1 73.8 1
      vertex 1 73.8 20.2
    endloop
  endfacet
  facet normal 0 1 0
    outer loop
      vertex 1 73.8 1
      vertex 5.85 73.8 3
      vertex 20.2 73.8 1
    endloop
  endfacet
  facet normal -1 0 0
    outer loop
      vertex 15.35 72.8 3
      vertex 15.35 73.8 20.2
      vertex 15.35 73.8 3
    endloop
  endfacet
  facet normal -1 -0 0
    outer loop
      vertex 15.35 73.8 20.2
      vertex 15.35 72.8 3
      vertex 15.35 72.8 20.2
    endloop
  endfacet
  facet normal -0 0 1
    outer loop
      vertex 5.85 73.8 3
      vertex 15.35 72.8 3
      vertex 15.35 73.8 3
    endloop
  endfacet
  facet normal 0 0 1
    outer loop
      vertex 15.35 72.8 3
      vertex 5.85 73.8 3
      vertex 5.85 72.8 3
    endloop
  endfacet
  facet normal 1 -0 0
    outer loop
      vertex 5.85 72.8 20.2
      vertex 5.85 73.8 3
      vertex 5.85 73.8 20.2
    endloop
  endfacet
  facet normal 1 0 0
    outer loop
      vertex 5.85 73.8 3
      vertex 5.85 72.8 20.2
      vertex 5.85 72.8 3
    endloop
  endfacet
  facet normal -1 0 0
    outer loop
      vertex 12.6 74.6 1
      vertex 12.6 75.6 4
      vertex 12.6 75.6 1
    endloop
  endfacet
  facet normal -1 -0 0
    outer loop
      vertex 12.6 75.6 4
      vertex 12.6 74.6 1
      vertex 12.6 74.6 4
    endloop
  endfacet
  facet normal 0 0 -1
    outer loop
      vertex 8.6 74.6 4
      vertex 12.6 75.6 4
      vertex 12.6 74.6 4
    endloop
  endfacet
  facet normal -0 0 -1
    outer loop
      vertex 12.6 75.6 4
      vertex 8.6 74.6 4
      vertex 8.6 75.6 4
    endloop
  endfacet
  facet normal 1 -0 0
    outer loop
      vertex 8.6 74.6 4
      vertex 8.6 75.6 1
      vertex 8.6 75.6 4
    endloop
  endfacet
  facet normal 1 0 0
    outer loop
      vertex 8.6 75.6 1
      vertex 8.6 74.6 4
      vertex 8.6 74.6 1
    endloop
  endfacet
  facet normal -1 0 0
    outer loop
      vertex 40.4 1 1
      vertex 40.4 1.8 20.2
      vertex 40.4 1.8 1
    endloop
  endfacet
  facet normal -1 -0 0
    outer loop
      vertex 40.4 1.8 20.2
      vertex 40.4 1 1
      vertex 40.4 1 20.2
    endloop
  endfacet
  facet normal -0 0 1
    outer loop
      vertex 21.2 1.8 1
      vertex 28.8 1 1
      vertex 28.8 1.8 1
    endloop
  endfacet
  facet normal 0 0 1
    outer loop
      vertex 28.8 1 1
      vertex 21.2 1.8 1
      vertex 21.2 1 1
    endloop
  endfacet
  facet normal 0 0 1
    outer loop
      vertex 28.8 1.8 1
      vertex 32.8 1.8 1
      vertex 32.8 2 1
    endloop
  endfacet
  facet normal 0 0 1
    outer loop
      vertex 32.8 1.8 1
      vertex 28.8 1.8 1
      vertex 32.8 1 1
    endloop
  endfacet
  facet normal 0 0 1
    outer loop
      vertex 28.8 1.8 1
      vertex 32.8 2 1
      vertex 28.8 2 1
    endloop
  endfacet
  facet normal 0 0 1
    outer loop
      vertex 32.8 1 1
      vertex 28.8 1.8 1
      vertex 28.8 1 1
    endloop
  endfacet
  facet normal 0 0 1
    outer loop
      vertex 32.8 1 1
      vertex 28.8 1 1
      vertex 32.8 0 1
    endloop
  endfacet
  facet normal 0 0 1
    outer loop
      vertex 32.8 0 1
      vertex 28.8 1 1
      vertex 28.8 0 1
    endloop
  endfacet
  facet normal -0 0 1
    outer loop
      vertex 32.8 1.8 1
      vertex 40.4 1 1
      vertex 40.4 1.8 1
    endloop
  endfacet
  facet normal 0 0 1
    outer loop
      vertex 40.4 1 1
      vertex 32.8 1.8 1
      vertex 32.8 1 1
    endloop
  endfacet
  facet normal 1 -0 0
    outer loop
      vertex 21.2 1 20.2
      vertex 21.2 1.8 1
      vertex 21.2 1.8 20.2
    endloop
  endfacet
  facet normal 1 0 0
    outer loop
      vertex 21.2 1.8 1
      vertex 21.2 1 20.2
      vertex 21.2 1 1
    endloop
  endfacet
  facet normal 0 -1 0
    outer loop
      vertex 21.2 1.8 20.2
      vertex 26.05 1.8 3
      vertex 26.05 1.8 20.2
    endloop
  endfacet
  facet normal 0 -1 0
    outer loop
      vertex 21.2 1.8 1
      vertex 26.05 1.8 3
      vertex 21.2 1.8 20.2
    endloop
  endfacet
  facet normal 0 -1 0
    outer loop
      vertex 28.8 1.8 1
      vertex 26.05 1.8 3
      vertex 21.2 1.8 1
    endloop
  endfacet
  facet normal 0 -1 0
    outer loop
      vertex 26.05 1.8 3
      vertex 28.8 1.8 1
      vertex 28.8 1.8 3
    endloop
  endfacet
  facet normal 0 -1 0
    outer loop
      vertex 32.8 1.8 3
      vertex 32.8 1.8 1
      vertex 35.55 1.8 3
    endloop
  endfacet
  facet normal 0 -1 0
    outer loop
      vertex 35.55 1.8 3
      vertex 40.4 1.8 20.2
      vertex 35.55 1.8 20.2
    endloop
  endfacet
  facet normal 0 -1 0
    outer loop
      vertex 35.55 1.8 3
      vertex 40.4 1.8 1
      vertex 40.4 1.8 20.2
    endloop
  endfacet
  facet normal 0 -1 0
    outer loop
      vertex 40.4 1.8 1
      vertex 35.55 1.8 3
      vertex 32.8 1.8 1
    endloop
  endfacet
  facet normal 0 1 0
    outer loop
      vertex 40.4 1 20.2
      vertex 32.8 1 4
      vertex 21.2 1 20.2
    endloop
  endfacet
  facet normal 0 1 -0
    outer loop
      vertex 40.4 1 1
      vertex 32.8 1 4
      vertex 40.4 1 20.2
    endloop
  endfacet
  facet normal 0 1 0
    outer loop
      vertex 32.8 1 4
      vertex 40.4 1 1
      vertex 32.8 1 1
    endloop
  endfacet
  facet normal 0 1 -0
    outer loop
      vertex 28.8 1 4
      vertex 21.2 1 20.2
      vertex 32.8 1 4
    endloop
  endfacet
  facet normal 0 1 0
    outer loop
      vertex 21.2 1 1
      vertex 28.8 1 4
      vertex 28.8 1 1
    endloop
  endfacet
  facet normal 0 1 0
    outer loop
      vertex 28.8 1 4
      vertex 21.2 1 1
      vertex 21.2 1 20.2
    endloop
  endfacet
  facet normal -1 0 0
    outer loop
      vertex 35.55 1.8 3
      vertex 35.55 2.8 20.2
      vertex 35.55 2.8 3
    endloop
  endfacet
  facet normal -1 -0 0
    outer loop
      vertex 35.55 2.8 20.2
      vertex 35.55 1.8 3
      vertex 35.55 1.8 20.2
    endloop
  endfacet
  facet normal 0 0 1
    outer loop
      vertex 35.55 2.8 3
      vertex 32.8 2 3
      vertex 35.55 1.8 3
    endloop
  endfacet
  facet normal 0 0 1
    outer loop
      vertex 35.55 2.8 3
      vertex 28.8 2 3
      vertex 32.8 2 3
    endloop
  endfacet
  facet normal -0 0 1
    outer loop
      vertex 26.05 2.8 3
      vertex 28.8 2 3
      vertex 35.55 2.8 3
    endloop
  endfacet
  facet normal 0 0 1
    outer loop
      vertex 26.05 1.8 3
      vertex 28.8 2 3
      vertex 26.05 2.8 3
    endloop
  endfacet
  facet normal 0 0 1
    outer loop
      vertex 28.8 2 3
      vertex 26.05 1.8 3
      vertex 28.8 1.8 3
    endloop
  endfacet
  facet normal 0 0 1
    outer loop
      vertex 35.55 1.8 3
      vertex 32.8 2 3
      vertex 32.8 1.8 3
    endloop
  endfacet
  facet normal 1 -0 0
    outer loop
      vertex 26.05 1.8 20.2
      vertex 26.05 2.8 3
      vertex 26.05 2.8 20.2
    endloop
  endfacet
  facet normal 1 0 0
    outer loop
      vertex 26.05 2.8 3
      vertex 26.05 1.8 20.2
      vertex 26.05 1.8 3
    endloop
  endfacet
  facet normal -1 0 0
    outer loop
      vertex 32.8 1.8 1
      vertex 32.8 2 3
      vertex 32.8 2 1
    endloop
  endfacet
  facet normal -1 -0 0
    outer loop
      vertex 32.8 2 3
      vertex 32.8 1.8 1
      vertex 32.8 1.8 3
    endloop
  endfacet
  facet normal -1 0 0
    outer loop
      vertex 32.8 0 1
      vertex 32.8 1 4
      vertex 32.8 1 1
    endloop
  endfacet
  facet normal -1 -0 0
    outer loop
      vertex 32.8 1 4
      vertex 32.8 0 1
      vertex 32.8 0 4
    endloop
  endfacet
  facet normal 0 0 -1
    outer loop
      vertex 28.8 0 4
      vertex 32.8 1 4
      vertex 32.8 0 4
    endloop
  endfacet
  facet normal -0 0 -1
    outer loop
      vertex 32.8 1 4
      vertex 28.8 0 4
      vertex 28.8 1 4
    endloop
  endfacet
  facet normal 1 -0 0
    outer loop
      vertex 28.8 0 4
      vertex 28.8 1 1
      vertex 28.8 1 4
    endloop
  endfacet
  facet normal 1 0 0
    outer loop
      vertex 28.8 1 1
      vertex 28.8 0 4
      vertex 28.8 0 1
    endloop
  endfacet
  facet normal 1 -0 0
    outer loop
      vertex 28.8 1.8 3
      vertex 28.8 2 1
      vertex 28.8 2 3
    endloop
  endfacet
  facet normal 1 0 0
    outer loop
      vertex 28.8 2 1
      vertex 28.8 1.8 3
      vertex 28.8 1.8 1
    endloop
  endfacet
  facet normal 0 -1 0
    outer loop
      vertex 28.8 2 1
      vertex 32.8 2 3
      vertex 28.8 2 3
    endloop
  endfacet
  facet normal 0 -1 -0
    outer loop
      vertex 32.8 2 3
      vertex 28.8 2 1
      vertex 32.8 2 1
    endloop
  endfacet
  facet normal -1 0 0
    outer loop
      vertex 40.4 2.8 1
      vertex 40.4 72.8 20.2
      vertex 40.4 72.8 1
    endloop
  endfacet
  facet normal -1 -0 0
    outer loop
      vertex 40.4 72.8 20.2
      vertex 40.4 2.8 1
      vertex 40.4 2.8 20.2
    endloop
  endfacet
  facet normal -0 0 1
    outer loop
      vertex 21.2 72.8 1
      vertex 40.4 2.8 1
      vertex 40.4 72.8 1
    endloop
  endfacet
  facet normal 0 0 1
    outer loop
      vertex 40.4 2.8 1
      vertex 21.2 72.8 1
      vertex 21.2 2.8 1
    endloop
  endfacet
  facet normal 1 -0 0
    outer loop
      vertex 21.2 2.8 20.2
      vertex 21.2 72.8 1
      vertex 21.2 72.8 20.2
    endloop
  endfacet
  facet normal 1 0 0
    outer loop
      vertex 21.2 72.8 1
      vertex 21.2 2.8 20.2
      vertex 21.2 2.8 1
    endloop
  endfacet
  facet normal 0 -1 0
    outer loop
      vertex 21.2 72.8 20.2
      vertex 26.05 72.8 3
      vertex 26.05 72.8 20.2
    endloop
  endfacet
  facet normal 0 -1 -0
    outer loop
      vertex 26.05 72.8 3
      vertex 21.2 72.8 1
      vertex 35.55 72.8 3
    endloop
  endfacet
  facet normal 0 -1 0
    outer loop
      vertex 21.2 72.8 1
      vertex 26.05 72.8 3
      vertex 21.2 72.8 20.2
    endloop
  endfacet
  facet normal 0 -1 0
    outer loop
      vertex 35.55 72.8 3
      vertex 40.4 72.8 20.2
      vertex 35.55 72.8 20.2
    endloop
  endfacet
  facet normal 0 -1 0
    outer loop
      vertex 35.55 72.8 3
      vertex 40.4 72.8 1
      vertex 40.4 72.8 20.2
    endloop
  endfacet
  facet normal 0 -1 0
    outer loop
      vertex 40.4 72.8 1
      vertex 35.55 72.8 3
      vertex 21.2 72.8 1
    endloop
  endfacet
  facet normal 0 1 0
    outer loop
      vertex 40.4 2.8 20.2
      vertex 35.55 2.8 3
      vertex 35.55 2.8 20.2
    endloop
  endfacet
  facet normal 0 1 0
    outer loop
      vertex 35.55 2.8 3
      vertex 40.4 2.8 1
      vertex 26.05 2.8 3
    endloop
  endfacet
  facet normal 0 1 -0
    outer loop
      vertex 40.4 2.8 1
      vertex 35.55 2.8 3
      vertex 40.4 2.8 20.2
    endloop
  endfacet
  facet normal 0 1 -0
    outer loop
      vertex 26.05 2.8 3
      vertex 21.2 2.8 20.2
      vertex 26.05 2.8 20.2
    endloop
  endfacet
  facet normal 0 1 0
    outer loop
      vertex 26.05 2.8 3
      vertex 21.2 2.8 1
      vertex 21.2 2.8 20.2
    endloop
  endfacet
  facet normal 0 1 0
    outer loop
      vertex 21.2 2.8 1
      vertex 26.05 2.8 3
      vertex 40.4 2.8 1
    endloop
  endfacet
  facet normal -1 0 0
    outer loop
      vertex 40.4 73.8 1
      vertex 40.4 74.6 20.2
      vertex 40.4 74.6 1
    endloop
  endfacet
  facet normal -1 -0 0
    outer loop
      vertex 40.4 74.6 20.2
      vertex 40.4 73.8 1
      vertex 40.4 73.8 20.2
    endloop
  endfacet
  facet normal 0 0 1
    outer loop
      vertex 32.8 75.6 1
      vertex 28.8 75.6 1
      vertex 32.8 74.6 1
    endloop
  endfacet
  facet normal -0 0 1
    outer loop
      vertex 32.8 74.6 1
      vertex 40.4 73.8 1
      vertex 40.4 74.6 1
    endloop
  endfacet
  facet normal 0 0 1
    outer loop
      vertex 28.8 74.6 1
      vertex 32.8 74.6 1
      vertex 28.8 75.6 1
    endloop
  endfacet
  facet normal -0 0 1
    outer loop
      vertex 28.8 74.6 1
      vertex 40.4 73.8 1
      vertex 32.8 74.6 1
    endloop
  endfacet
  facet normal 0 0 1
    outer loop
      vertex 21.2 73.8 1
      vertex 28.8 74.6 1
      vertex 21.2 74.6 1
    endloop
  endfacet
  facet normal 0 0 1
    outer loop
      vertex 28.8 74.6 1
      vertex 21.2 73.8 1
      vertex 40.4 73.8 1
    endloop
  endfacet
  facet normal 1 -0 0
    outer loop
      vertex 21.2 73.8 20.2
      vertex 21.2 74.6 1
      vertex 21.2 74.6 20.2
    endloop
  endfacet
  facet normal 1 0 0
    outer loop
      vertex 21.2 74.6 1
      vertex 21.2 73.8 20.2
      vertex 21.2 73.8 1
    endloop
  endfacet
  facet normal 0 -1 0
    outer loop
      vertex 21.2 74.6 20.2
      vertex 28.8 74.6 4
      vertex 40.4 74.6 20.2
    endloop
  endfacet
  facet normal 0 -1 0
    outer loop
      vertex 21.2 74.6 1
      vertex 28.8 74.6 4
      vertex 21.2 74.6 20.2
    endloop
  endfacet
  facet normal 0 -1 -0
    outer loop
      vertex 28.8 74.6 4
      vertex 21.2 74.6 1
      vertex 28.8 74.6 1
    endloop
  endfacet
  facet normal 0 -1 0
    outer loop
      vertex 32.8 74.6 4
      vertex 40.4 74.6 20.2
      vertex 28.8 74.6 4
    endloop
  endfacet
  facet normal 0 -1 0
    outer loop
      vertex 40.4 74.6 1
      vertex 32.8 74.6 4
      vertex 32.8 74.6 1
    endloop
  endfacet
  facet normal 0 -1 0
    outer loop
      vertex 32.8 74.6 4
      vertex 40.4 74.6 1
      vertex 40.4 74.6 20.2
    endloop
  endfacet
  facet normal 0 1 0
    outer loop
      vertex 40.4 73.8 20.2
      vertex 35.55 73.8 3
      vertex 35.55 73.8 20.2
    endloop
  endfacet
  facet normal 0 1 0
    outer loop
      vertex 35.55 73.8 3
      vertex 40.4 73.8 1
      vertex 26.05 73.8 3
    endloop
  endfacet
  facet normal 0 1 -0
    outer loop
      vertex 40.4 73.8 1
      vertex 35.55 73.8 3
      vertex 40.4 73.8 20.2
    endloop
  endfacet
  facet normal 0 1 -0
    outer loop
      vertex 26.05 73.8 3
      vertex 21.2 73.8 20.2
      vertex 26.05 73.8 20.2
    endloop
  endfacet
  facet normal 0 1 0
    outer loop
      vertex 26.05 73.8 3
      vertex 21.2 73.8 1
      vertex 21.2 73.8 20.2
    endloop
  endfacet
  facet normal 0 1 0
    outer loop
      vertex 21.2 73.8 1
      vertex 26.05 73.8 3
      vertex 40.4 73.8 1
    endloop
  endfacet
  facet normal -1 0 0
    outer loop
      vertex 35.55 72.8 3
      vertex 35.55 73.8 20.2
      vertex 35.55 73.8 3
    endloop
  endfacet
  facet normal -1 -0 0
    outer loop
      vertex 35.55 73.8 20.2
      vertex 35.55 72.8 3
      vertex 35.55 72.8 20.2
    endloop
  endfacet
  facet normal -0 0 1
    outer loop
      vertex 26.05 73.8 3
      vertex 35.55 72.8 3
      vertex 35.55 73.8 3
    endloop
  endfacet
  facet normal 0 0 1
    outer loop
      vertex 35.55 72.8 3
      vertex 26.05 73.8 3
      vertex 26.05 72.8 3
    endloop
  endfacet
  facet normal 1 -0 0
    outer loop
      vertex 26.05 72.8 20.2
      vertex 26.05 73.8 3
      vertex 26.05 73.8 20.2
    endloop
  endfacet
  facet normal 1 0 0
    outer loop
      vertex 26.05 73.8 3
      vertex 26.05 72.8 20.2
      vertex 26.05 72.8 3
    endloop
  endfacet
  facet normal -1 0 0
    outer loop
      vertex 32.8 74.6 1
      vertex 32.8 75.6 4
      vertex 32.8 75.6 1
    endloop
  endfacet
  facet normal -1 -0 0
    outer loop
      vertex 32.8 75.6 4
      vertex 32.8 74.6 1
      vertex 32.8 74.6 4
    endloop
  endfacet
  facet normal 0 0 -1
    outer loop
      vertex 28.8 74.6 4
      vertex 32.8 75.6 4
      vertex 32.8 74.6 4
    endloop
  endfacet
  facet normal -0 0 -1
    outer loop
      vertex 32.8 75.6 4
      vertex 28.8 74.6 4
      vertex 28.8 75.6 4
    endloop
  endfacet
  facet normal 1 -0 0
    outer loop
      vertex 28.8 74.6 4
      vertex 28.8 75.6 1
      vertex 28.8 75.6 4
    endloop
  endfacet
  facet normal 1 0 0
    outer loop
      vertex 28.8 75.6 1
      vertex 28.8 74.6 4
      vertex 28.8 74.6 1
    endloop
  endfacet
  facet normal 1 -0 0
    outer loop
      vertex 41.4 0 20.2
      vertex 41.4 75.6 0
      vertex 41.4 75.6 20.2
    endloop
  endfacet
  facet normal 1 0 0
    outer loop
      vertex 41.4 75.6 0
      vertex 41.4 0 20.2
      vertex 41.4 0 0
    endloop
  endfacet
  facet normal -0 0 1
    outer loop
      vertex 15.35 2.8 20.2
      vertex 20.2 1.8 20.2
      vertex 20.2 2.8 20.2
    endloop
  endfacet
  facet normal 0 0 1
    outer loop
      vertex 20.2 1.8 20.2
      vertex 15.35 2.8 20.2
      vertex 15.35 1.8 20.2
    endloop
  endfacet
  facet normal -0 0 1
    outer loop
      vertex 15.35 73.8 20.2
      vertex 20.2 72.8 20.2
      vertex 20.2 73.8 20.2
    endloop
  endfacet
  facet normal 0 0 1
    outer loop
      vertex 20.2 72.8 20.2
      vertex 15.35 73.8 20.2
      vertex 15.35 72.8 20.2
    endloop
  endfacet
  facet normal -0 0 1
    outer loop
      vertex 35.55 2.8 20.2
      vertex 40.4 1.8 20.2
      vertex 40.4 2.8 20.2
    endloop
  endfacet
  facet normal 0 0 1
    outer loop
      vertex 40.4 1.8 20.2
      vertex 35.55 2.8 20.2
      vertex 35.55 1.8 20.2
    endloop
  endfacet
  facet normal -0 0 1
    outer loop
      vertex 35.55 73.8 20.2
      vertex 40.4 72.8 20.2
      vertex 40.4 73.8 20.2
    endloop
  endfacet
  facet normal 0 0 1
    outer loop
      vertex 40.4 72.8 20.2
      vertex 35.55 73.8 20.2
      vertex 35.55 72.8 20.2
    endloop
  endfacet
  facet normal 0 0 1
    outer loop
      vertex 40.4 73.8 20.2
      vertex 41.4 75.6 20.2
      vertex 40.4 74.6 20.2
    endloop
  endfacet
  facet normal 0 0 1
    outer loop
      vertex 41.4 75.6 20.2
      vertex 21.2 74.6 20.2
      vertex 40.4 74.6 20.2
    endloop
  endfacet
  facet normal 0 0 1
    outer loop
      vertex 20.2 73.8 20.2
      vertex 21.2 73.8 20.2
      vertex 21.2 74.6 20.2
    endloop
  endfacet
  facet normal 0 0 1
    outer loop
      vertex 21.2 73.8 20.2
      vertex 20.2 73.8 20.2
      vertex 21.2 72.8 20.2
    endloop
  endfacet
  facet normal 0 0 1
    outer loop
      vertex 21.2 72.8 20.2
      vertex 20.2 72.8 20.2
      vertex 21.2 2.8 20.2
    endloop
  endfacet
  facet normal 0 0 1
    outer loop
      vertex 20.2 2.8 20.2
      vertex 21.2 2.8 20.2
      vertex 20.2 72.8 20.2
    endloop
  endfacet
  facet normal 0 0 1
    outer loop
      vertex 20.2 73.8 20.2
      vertex 21.2 74.6 20.2
      vertex 20.2 74.6 20.2
    endloop
  endfacet
  facet normal 0 0 1
    outer loop
      vertex 41.4 75.6 20.2
      vertex 20.2 74.6 20.2
      vertex 21.2 74.6 20.2
    endloop
  endfacet
  facet normal -0 0 1
    outer loop
      vertex 0 75.6 20.2
      vertex 20.2 74.6 20.2
      vertex 41.4 75.6 20.2
    endloop
  endfacet
  facet normal 0 0 1
    outer loop
      vertex 0 75.6 20.2
      vertex 1 73.8 20.2
      vertex 1 74.6 20.2
    endloop
  endfacet
  facet normal 0 0 1
    outer loop
      vertex 1 73.8 20.2
      vertex 0 75.6 20.2
      vertex 1 72.8 20.2
    endloop
  endfacet
  facet normal 0 0 1
    outer loop
      vertex 1 72.8 20.2
      vertex 0 75.6 20.2
      vertex 1 2.8 20.2
    endloop
  endfacet
  facet normal 0 0 1
    outer loop
      vertex 0 0 20.2
      vertex 1 2.8 20.2
      vertex 0 75.6 20.2
    endloop
  endfacet
  facet normal 0 0 1
    outer loop
      vertex 1 2.8 20.2
      vertex 0 0 20.2
      vertex 1 1.8 20.2
    endloop
  endfacet
  facet normal 0 0 1
    outer loop
      vertex 20.2 74.6 20.2
      vertex 0 75.6 20.2
      vertex 1 74.6 20.2
    endloop
  endfacet
  facet normal 0 0 1
    outer loop
      vertex 40.4 72.8 20.2
      vertex 41.4 75.6 20.2
      vertex 40.4 73.8 20.2
    endloop
  endfacet
  facet normal 0 0 1
    outer loop
      vertex 41.4 75.6 20.2
      vertex 40.4 72.8 20.2
      vertex 41.4 0 20.2
    endloop
  endfacet
  facet normal -0 0 1
    outer loop
      vertex 40.4 2.8 20.2
      vertex 41.4 0 20.2
      vertex 40.4 72.8 20.2
    endloop
  endfacet
  facet normal -0 0 1
    outer loop
      vertex 40.4 1.8 20.2
      vertex 41.4 0 20.2
      vertex 40.4 2.8 20.2
    endloop
  endfacet
  facet normal -0 0 1
    outer loop
      vertex 40.4 1 20.2
      vertex 41.4 0 20.2
      vertex 40.4 1.8 20.2
    endloop
  endfacet
  facet normal -0 0 1
    outer loop
      vertex 21.2 1 20.2
      vertex 41.4 0 20.2
      vertex 40.4 1 20.2
    endloop
  endfacet
  facet normal 0 0 1
    outer loop
      vertex 21.2 72.8 20.2
      vertex 20.2 73.8 20.2
      vertex 20.2 72.8 20.2
    endloop
  endfacet
  facet normal 0 0 1
    outer loop
      vertex 21.2 2.8 20.2
      vertex 20.2 2.8 20.2
      vertex 21.2 1.8 20.2
    endloop
  endfacet
  facet normal 0 0 1
    outer loop
      vertex 20.2 1.8 20.2
      vertex 21.2 1.8 20.2
      vertex 20.2 2.8 20.2
    endloop
  endfacet
  facet normal 0 0 1
    outer loop
      vertex 21.2 1.8 20.2
      vertex 20.2 1.8 20.2
      vertex 21.2 1 20.2
    endloop
  endfacet
  facet normal 0 0 1
    outer loop
      vertex 20.2 1 20.2
      vertex 21.2 1 20.2
      vertex 20.2 1.8 20.2
    endloop
  endfacet
  facet normal -0 0 1
    outer loop
      vertex 20.2 1 20.2
      vertex 41.4 0 20.2
      vertex 21.2 1 20.2
    endloop
  endfacet
  facet normal 0 0 1
    outer loop
      vertex 0 0 20.2
      vertex 20.2 1 20.2
      vertex 1 1 20.2
    endloop
  endfacet
  facet normal 0 0 1
    outer loop
      vertex 20.2 1 20.2
      vertex 0 0 20.2
      vertex 41.4 0 20.2
    endloop
  endfacet
  facet normal 0 0 1
    outer loop
      vertex 1 1.8 20.2
      vertex 0 0 20.2
      vertex 1 1 20.2
    endloop
  endfacet
  facet normal -0 0 1
    outer loop
      vertex 21.2 73.8 20.2
      vertex 26.05 72.8 20.2
      vertex 26.05 73.8 20.2
    endloop
  endfacet
  facet normal 0 0 1
    outer loop
      vertex 26.05 72.8 20.2
      vertex 21.2 73.8 20.2
      vertex 21.2 72.8 20.2
    endloop
  endfacet
  facet normal -0 0 1
    outer loop
      vertex 21.2 2.8 20.2
      vertex 26.05 1.8 20.2
      vertex 26.05 2.8 20.2
    endloop
  endfacet
  facet normal 0 0 1
    outer loop
      vertex 26.05 1.8 20.2
      vertex 21.2 2.8 20.2
      vertex 21.2 1.8 20.2
    endloop
  endfacet
  facet normal -0 0 1
    outer loop
      vertex 1 73.8 20.2
      vertex 5.85 72.8 20.2
      vertex 5.85 73.8 20.2
    endloop
  endfacet
  facet normal 0 0 1
    outer loop
      vertex 5.85 72.8 20.2
      vertex 1 73.8 20.2
      vertex 1 72.8 20.2
    endloop
  endfacet
  facet normal -0 0 1
    outer loop
      vertex 1 2.8 20.2
      vertex 5.85 1.8 20.2
      vertex 5.85 2.8 20.2
    endloop
  endfacet
  facet normal 0 0 1
    outer loop
      vertex 5.85 1.8 20.2
      vertex 1 2.8 20.2
      vertex 1 1.8 20.2
    endloop
  endfacet
  facet normal 0 0 -1
    outer loop
      vertex 0 0 0
      vertex 41.4 75.6 0
      vertex 41.4 0 0
    endloop
  endfacet
  facet normal -0 0 -1
    outer loop
      vertex 41.4 75.6 0
      vertex 0 0 0
      vertex 0 75.6 0
    endloop
  endfacet
  facet normal -1 0 0
    outer loop
      vertex 0 0 0
      vertex 0 75.6 20.2
      vertex 0 75.6 0
    endloop
  endfacet
  facet normal -1 -0 0
    outer loop
      vertex 0 75.6 20.2
      vertex 0 0 0
      vertex 0 0 20.2
    endloop
  endfacet
  facet normal 0 1 -0
    outer loop
      vertex 28.8 75.6 1
      vertex 12.6 75.6 4
      vertex 28.8 75.6 4
    endloop
  endfacet
  facet normal 0 1 0
    outer loop
      vertex 12.6 75.6 4
      vertex 28.8 75.6 1
      vertex 12.6 75.6 1
    endloop
  endfacet
  facet normal 0 1 0
    outer loop
      vertex 28.8 75.6 4
      vertex 41.4 75.6 20.2
      vertex 32.8 75.6 4
    endloop
  endfacet
  facet normal 0 1 -0
    outer loop
      vertex 41.4 75.6 0
      vertex 32.8 75.6 4
      vertex 41.4 75.6 20.2
    endloop
  endfacet
  facet normal 0 1 0
    outer loop
      vertex 41.4 75.6 0
      vertex 28.8 75.6 1
      vertex 32.8 75.6 1
    endloop
  endfacet
  facet normal 0 1 0
    outer loop
      vertex 28.8 75.6 1
      vertex 41.4 75.6 0
      vertex 12.6 75.6 1
    endloop
  endfacet
  facet normal 0 1 0
    outer loop
      vertex 0 75.6 0
      vertex 12.6 75.6 1
      vertex 41.4 75.6 0
    endloop
  endfacet
  facet normal 0 1 0
    outer loop
      vertex 32.8 75.6 4
      vertex 41.4 75.6 0
      vertex 32.8 75.6 1
    endloop
  endfacet
  facet normal 0 1 0
    outer loop
      vertex 41.4 75.6 20.2
      vertex 28.8 75.6 4
      vertex 0 75.6 20.2
    endloop
  endfacet
  facet normal 0 1 -0
    outer loop
      vertex 12.6 75.6 4
      vertex 0 75.6 20.2
      vertex 28.8 75.6 4
    endloop
  endfacet
  facet normal 0 1 -0
    outer loop
      vertex 8.6 75.6 4
      vertex 0 75.6 20.2
      vertex 12.6 75.6 4
    endloop
  endfacet
  facet normal 0 1 0
    outer loop
      vertex 0 75.6 0
      vertex 8.6 75.6 4
      vertex 8.6 75.6 1
    endloop
  endfacet
  facet normal 0 1 0
    outer loop
      vertex 8.6 75.6 4
      vertex 0 75.6 0
      vertex 0 75.6 20.2
    endloop
  endfacet
  facet normal 0 1 0
    outer loop
      vertex 12.6 75.6 1
      vertex 0 75.6 0
      vertex 8.6 75.6 1
    endloop
  endfacet
endsolid OpenSCAD_Model
