<?xml version="1.0" encoding="UTF-8" standalone="no"?>
<!-- Created with Inkscape (http://www.inkscape.org/) -->

<svg
   xmlns:dc="http://purl.org/dc/elements/1.1/"
   xmlns:cc="http://creativecommons.org/ns#"
   xmlns:rdf="http://www.w3.org/1999/02/22-rdf-syntax-ns#"
   xmlns:svg="http://www.w3.org/2000/svg"
   xmlns="http://www.w3.org/2000/svg"
   xmlns:sodipodi="http://sodipodi.sourceforge.net/DTD/sodipodi-0.dtd"
   xmlns:inkscape="http://www.inkscape.org/namespaces/inkscape"
   width="355.60001mm"
   height="215.89999mm"
   viewBox="0 0 1260 765"
   id="svg2"
   version="1.1"
   inkscape:version="0.91 r13725"
   sodipodi:docname="raygun25inch.svg">
  <defs
     id="defs4" />
  <sodipodi:namedview
     id="base"
     pagecolor="#ffffff"
     bordercolor="#666666"
     borderopacity="1.0"
     inkscape:pageopacity="0.0"
     inkscape:pageshadow="2"
     inkscape:zoom="0.47911576"
     inkscape:cx="511.54215"
     inkscape:cy="-99.468553"
     inkscape:document-units="mm"
     inkscape:current-layer="layer1"
     showgrid="false"
     units="mm"
     inkscape:window-width="1920"
     inkscape:window-height="1057"
     inkscape:window-x="-8"
     inkscape:window-y="-8"
     inkscape:window-maximized="1">
    <inkscape:grid
       type="xygrid"
       id="grid3379"
       units="mm"
       spacingx="0.35433071"
       spacingy="0.35433071" />
  </sodipodi:namedview>
  <metadata
     id="metadata7">
    <rdf:RDF>
      <cc:Work
         rdf:about="">
        <dc:format>image/svg+xml</dc:format>
        <dc:type
           rdf:resource="http://purl.org/dc/dcmitype/StillImage" />
        <dc:title></dc:title>
      </cc:Work>
    </rdf:RDF>
  </metadata>
  <g
     inkscape:label="Layer 1"
     inkscape:groupmode="layer"
     id="layer1"
     transform="translate(0,-287.3622)">
    <circle
       r="0"
       cy="777.07349"
       cx="87.199249"
       id="ellipse4760"
       style="opacity:1;fill:none;fill-opacity:1;stroke:#ff0000;stroke-width:0.34643599;stroke-miterlimit:4;stroke-dasharray:none;stroke-opacity:1" />
    <g
       id="g4347"
       transform="matrix(-1,0,0,1,1070.358,-258.22179)">
      <g
         id="g4349"
         transform="translate(-3.1996986,0)">
        <circle
           r="6.9133964"
           cy="645.48602"
           cx="657.3092"
           id="circle4351"
           style="opacity:1;fill:none;fill-opacity:1;stroke:#ff0000;stroke-width:0.34643599;stroke-miterlimit:4;stroke-dasharray:none;stroke-opacity:1" />
        <circle
           style="opacity:1;fill:none;fill-opacity:1;stroke:#ff0000;stroke-width:0.34643599;stroke-miterlimit:4;stroke-dasharray:none;stroke-opacity:1"
           id="circle4353"
           cx="685.6557"
           cy="645.48602"
           r="6.9133964" />
        <circle
           r="6.9133964"
           cy="645.48602"
           cx="714.00214"
           id="circle4355"
           style="opacity:1;fill:none;fill-opacity:1;stroke:#ff0000;stroke-width:0.34643599;stroke-miterlimit:4;stroke-dasharray:none;stroke-opacity:1" />
        <circle
           style="opacity:1;fill:none;fill-opacity:1;stroke:#ff0000;stroke-width:0.34643599;stroke-miterlimit:4;stroke-dasharray:none;stroke-opacity:1"
           id="circle4357"
           cx="742.34857"
           cy="645.48602"
           r="6.9133964" />
      </g>
      <circle
         r="6.9133964"
         cy="907.59955"
         cx="132.02937"
         id="circle4359"
         style="opacity:1;fill:none;fill-opacity:1;stroke:#ff0000;stroke-width:0.34643599;stroke-miterlimit:4;stroke-dasharray:none;stroke-opacity:1"
         transform="matrix(0.77793622,-0.62834324,0.62834324,0.77793622,0,0)" />
      <circle
         style="opacity:1;fill:none;fill-opacity:1;stroke:#ff0000;stroke-width:0.34643599;stroke-miterlimit:4;stroke-dasharray:none;stroke-opacity:1"
         id="circle4361"
         cx="160.37584"
         cy="907.59955"
         r="6.9133964"
         transform="matrix(0.77793622,-0.62834324,0.62834324,0.77793622,0,0)" />
      <circle
         r="6.9133964"
         cy="907.59955"
         cx="188.72227"
         id="circle4363"
         style="opacity:1;fill:none;fill-opacity:1;stroke:#ff0000;stroke-width:0.34643599;stroke-miterlimit:4;stroke-dasharray:none;stroke-opacity:1"
         transform="matrix(0.77793622,-0.62834324,0.62834324,0.77793622,0,0)" />
      <circle
         style="opacity:1;fill:none;fill-opacity:1;stroke:#ff0000;stroke-width:0.34643599;stroke-miterlimit:4;stroke-dasharray:none;stroke-opacity:1"
         id="circle4365"
         cx="217.06874"
         cy="907.59955"
         r="6.9133964"
         transform="matrix(0.77793622,-0.62834324,0.62834324,0.77793622,0,0)" />
      <circle
         style="opacity:1;fill:none;fill-opacity:1;stroke:#ff0000;stroke-width:0.34643599;stroke-miterlimit:4;stroke-dasharray:none;stroke-opacity:1"
         id="circle4367"
         cx="739.14886"
         cy="619.48602"
         r="6.9133964" />
      <g
         id="g4369">
        <g
           id="g4371"
           transform="matrix(0.96853791,0.24886604,-0.24886604,0.96853791,171.3136,-189.84418)">
          <circle
             style="opacity:1;fill:none;fill-opacity:1;stroke:#ff0000;stroke-width:0.34643599;stroke-miterlimit:4;stroke-dasharray:none;stroke-opacity:1"
             id="circle4373"
             cx="-988.22058"
             cy="283.36115"
             r="6.9133964"
             transform="matrix(-0.94478715,-0.32768467,-0.32768467,0.94478715,0,0)" />
          <circle
             r="6.9133964"
             cy="291.26312"
             cx="-965.43732"
             id="circle4375"
             style="opacity:1;fill:none;fill-opacity:1;stroke:#ff0000;stroke-width:0.34643599;stroke-miterlimit:4;stroke-dasharray:none;stroke-opacity:1"
             transform="matrix(-0.94478715,-0.32768467,-0.32768467,0.94478715,0,0)" />
          <circle
             style="opacity:1;fill:none;fill-opacity:1;stroke:#ff0000;stroke-width:0.34643599;stroke-miterlimit:4;stroke-dasharray:none;stroke-opacity:1"
             id="circle4377"
             cx="-942.65411"
             cy="299.16519"
             r="6.9133964"
             transform="matrix(-0.94478715,-0.32768467,-0.32768467,0.94478715,0,0)" />
          <circle
             r="6.9133964"
             cy="307.06717"
             cx="-919.87085"
             id="circle4379"
             style="opacity:1;fill:none;fill-opacity:1;stroke:#ff0000;stroke-width:0.34643599;stroke-miterlimit:4;stroke-dasharray:none;stroke-opacity:1"
             transform="matrix(-0.94478715,-0.32768467,-0.32768467,0.94478715,0,0)" />
        </g>
        <g
           transform="matrix(0.86452616,-0.50258782,0.50258782,0.86452616,-185.862,511.73972)"
           id="g4381">
          <g
             id="g4383"
             transform="matrix(0.99713336,-0.0756641,0.0756641,0.99713336,-42.486369,61.665258)">
            <circle
               r="6.9133964"
               cy="291.26312"
               cx="-965.43732"
               id="circle4385"
               style="opacity:1;fill:none;fill-opacity:1;stroke:#ff0000;stroke-width:0.34643599;stroke-miterlimit:4;stroke-dasharray:none;stroke-opacity:1"
               transform="matrix(-0.94478715,-0.32768467,-0.32768467,0.94478715,0,0)" />
            <circle
               style="opacity:1;fill:none;fill-opacity:1;stroke:#ff0000;stroke-width:0.34643599;stroke-miterlimit:4;stroke-dasharray:none;stroke-opacity:1"
               id="circle4387"
               cx="-942.65411"
               cy="299.16519"
               r="6.9133964"
               transform="matrix(-0.94478715,-0.32768467,-0.32768467,0.94478715,0,0)" />
            <circle
               r="6.9133964"
               cy="307.06717"
               cx="-919.87085"
               id="circle4389"
               style="opacity:1;fill:none;fill-opacity:1;stroke:#ff0000;stroke-width:0.34643599;stroke-miterlimit:4;stroke-dasharray:none;stroke-opacity:1"
               transform="matrix(-0.94478715,-0.32768467,-0.32768467,0.94478715,0,0)" />
          </g>
        </g>
      </g>
      <circle
         r="6.9133964"
         cy="595.48602"
         cx="739.14886"
         id="circle4391"
         style="opacity:1;fill:none;fill-opacity:1;stroke:#ff0000;stroke-width:0.34643599;stroke-miterlimit:4;stroke-dasharray:none;stroke-opacity:1" />
      <circle
         r="6.9133964"
         cy="605.48602"
         cx="779.14886"
         id="circle4393"
         style="opacity:1;fill:none;fill-opacity:1;stroke:#ff0000;stroke-width:0.34643599;stroke-miterlimit:4;stroke-dasharray:none;stroke-opacity:1" />
      <g
         id="g4395">
        <path
           id="path4397"
           d="m 730.2832,549.37978 -82.15625,73.9414 1.63086,0.50586 c -76.01439,-0.11936 -299.40328,-0.49534 -472.08398,-0.78711 l 0,38.88868 457.28125,20.4375 c 28.27574,0.36215 12.00765,78.16515 24.63672,95.96484 7.0558,9.94461 -1.17132,0.61414 12.58398,25.48047 0,0 6.41899,16.78673 9.75781,31.32031 25.1853,109.62929 -6.72438,194.49027 40.13282,194.49027 31.6873,0 59.3104,-41.5417 73.8789,-103.07816 l 4.2793,-20.8418 c 3.2088,-18.14098 5.36243,-37.60686 6.23633,-57.99023 l 0.43164,-17.80664 c 0.01,-1.03995 0.0156,-2.07743 0.0156,-3.12109 0,-41.3968 -5.19255,-79.88889 -14.09765,-111.98047 l 0,0.77929 -0.61719,-2.08398 -6.48828,-20.8418 c -4.3672,-11.83464 -9.30165,-22.44206 -14.70313,-31.57812 l 80.46875,-55.08594 18.72071,-12.81445 7.97461,-5.45899 z"
           style="opacity:1;fill:none;fill-opacity:1;stroke:#ff0000;stroke-width:0.39411432;stroke-miterlimit:4;stroke-dasharray:none;stroke-opacity:1"
           inkscape:connector-curvature="0"
           sodipodi:nodetypes="ccccccscssccccsccccccccc" />
        <rect
           y="693.11896"
           x="758.59363"
           height="15.987435"
           width="33.488499"
           id="rect4399"
           style="opacity:1;fill:none;fill-opacity:1;stroke:#ff0000;stroke-width:0.31177726;stroke-miterlimit:4;stroke-dasharray:none;stroke-opacity:1" />
        <rect
           y="905.84644"
           x="767.41119"
           height="15.987435"
           width="33.488499"
           id="rect4401"
           style="opacity:1;fill:none;fill-opacity:1;stroke:#ff0000;stroke-width:0.31177726;stroke-miterlimit:4;stroke-dasharray:none;stroke-opacity:1" />
      </g>
    </g>
    <g
       transform="matrix(0,-1,1,0,-261.43538,1085.2926)"
       id="g4298">
      <path
         sodipodi:nodetypes="ccccccc"
         inkscape:connector-curvature="0"
         id="path4300"
         d="m 649.58841,728.57073 c 0.001,-23.37244 -32.10689,-42.31976 -71.714,-42.31939 -32.90331,0.0197 -61.56242,13.25016 -69.51424,32.0911 -3.33409,6.67595 -2.71549,13.50393 0.0315,20.48393 7.96824,18.82258 36.60561,32.03689 69.4827,32.0618 39.60582,3.7e-4 71.71323,-18.94577 71.714,-42.31744 z"
         style="opacity:1;fill:none;fill-opacity:1;stroke:#ff0000;stroke-width:0.40282792;stroke-miterlimit:4;stroke-dasharray:none;stroke-opacity:1" />
      <rect
         y="720.70276"
         x="506.65948"
         height="15.734"
         width="111.83305"
         id="rect4302"
         style="opacity:1;fill:none;fill-opacity:1;stroke:#ff0000;stroke-width:0.56521255;stroke-miterlimit:4;stroke-dasharray:none;stroke-opacity:1" />
    </g>
    <g
       transform="matrix(0,-1,1,0,-301.00911,1225.1883)"
       id="g4304">
      <path
         sodipodi:nodetypes="cccccc"
         inkscape:connector-curvature="0"
         id="path4306"
         d="m 631.57115,888.33505 c 21.53424,1.1e-4 38.99143,-23.7224 38.99217,-52.98628 -0.0217,-24.03725 -11.94715,-45.04345 -29.05077,-51.17188 -7.02768,-2.50829 -13.7513,-2.43211 -20.62695,0.22852 -16.7483,6.48544 -28.3013,27.27734 -28.30664,50.94336 7.4e-4,29.26389 17.45794,52.9864 38.99219,52.98628 z"
         style="opacity:1;fill:none;fill-opacity:1;stroke:#ff0000;stroke-width:0.32303119;stroke-miterlimit:4;stroke-dasharray:none;stroke-opacity:1" />
      <rect
         transform="matrix(0,1,-1,0,0,0)"
         style="opacity:1;fill:none;fill-opacity:1;stroke:#ff0000;stroke-width:0.47663885;stroke-miterlimit:4;stroke-dasharray:none;stroke-opacity:1"
         id="rect4308"
         width="79.083778"
         height="15.822574"
         x="781.13104"
         y="-639.48242" />
    </g>
  </g>
</svg>
